<?xml version="1.0" standalone="no"?>
<!DOCTYPE svg PUBLIC "-//W3C//DTD SVG 20010904//EN"
 "http://www.w3.org/TR/2001/REC-SVG-20010904/DTD/svg10.dtd">
<svg version="1.0" xmlns="http://www.w3.org/2000/svg"
 width="948.000000pt" height="531.000000pt" viewBox="0 0 948.000000 531.000000"
 preserveAspectRatio="xMidYMid meet">

<g transform="translate(0.000000,531.000000) scale(0.100000,-0.100000)"
fill="#000000" stroke="none">
<path d="M3143 4953 c686 -2 1808 -2 2495 0 686 1 124 2 -1248 2 -1372 0
-1934 -1 -1247 -2z"/>
<path d="M1845 4931 c-35 -21 -68 -67 -61 -84 3 -8 5 -6 6 3 1 21 31 55 71 79
19 12 30 21 24 21 -5 0 -24 -8 -40 -19z"/>
<path d="M6926 4926 c23 -14 49 -40 57 -58 10 -20 17 -26 17 -15 0 23 -59 84
-90 92 -18 4 -13 -1 16 -19z"/>
<path d="M1862 4910 c-18 -11 -41 -34 -52 -52 -19 -32 -20 -52 -20 -645 l0
-613 -212 0 c-218 0 -263 -4 -251 -23 4 -6 0 -8 -9 -4 -20 7 -39 -14 -66 -71
-22 -46 -23 -94 -22 -2184 l0 -108 -137 0 c-195 0 -182 -7 -186 109 l-3 96 -2
-106 -2 -107 48 -20 c26 -11 72 -28 102 -37 30 -9 69 -20 86 -25 17 -6 42 -10
57 -10 14 0 28 -4 31 -8 3 -5 6 -165 6 -355 1 -206 5 -347 11 -347 5 0 9 -6 9
-14 0 -8 8 -22 18 -32 9 -10 17 -25 17 -33 0 -10 8 -15 19 -13 10 2 15 -1 12
-7 -18 -28 78 -32 707 -29 511 2 639 6 646 16 4 7 14 12 21 10 8 -2 14 3 15 9
0 7 10 20 23 28 12 9 22 23 22 31 0 8 3 14 8 14 4 0 7 240 7 532 0 293 1 437
2 321 2 -131 7 -213 13 -213 6 0 10 16 10 35 l0 35 1715 0 1715 0 0 -264 c0
-166 4 -267 10 -271 6 -3 10 0 10 7 0 7 9 -2 20 -20 11 -18 19 -37 17 -44 -1
-6 16 -22 38 -34 l40 -24 385 2 c370 2 375 3 140 8 -135 3 189 6 720 6 531 0
868 -3 750 -6 l-215 -6 251 -2 251 -2 7 -48 c14 -106 46 -207 72 -229 32 -29
40 -29 73 5 22 22 32 49 53 152 15 69 30 145 33 170 4 25 11 50 16 56 6 7 8
647 5 1585 -2 866 -4 1583 -4 1594 1 11 1 106 2 212 1 184 -4 225 -24 193 -8
-13 -10 -13 -10 2 0 9 -12 27 -27 40 -16 12 -28 30 -28 38 0 13 -33 15 -230
16 -132 0 -200 -2 -160 -6 39 -4 -348 -7 -860 -7 -710 0 -887 3 -747 10 l182
9 0 302 c-1 328 -1 327 -60 371 l-34 25 -2500 0 c-2478 0 -2501 0 -2534 -20z
m858 -224 c0 -3 -4 -8 -10 -11 -5 -3 -10 -1 -10 4 0 6 5 11 10 11 6 0 10 -2
10 -4z m3270 -47 c0 -5 -7 -9 -15 -9 -15 0 -20 12 -9 23 8 8 24 -1 24 -14z
m-1740 -20 c0 -5 -7 -9 -15 -9 -15 0 -20 12 -9 23 8 8 24 -1 24 -14z m-535
-29 c3 -5 1 -10 -4 -10 -6 0 -11 5 -11 10 0 6 2 10 4 10 3 0 8 -4 11 -10z
m2405 -75 c0 -8 -4 -15 -10 -15 -5 0 -10 7 -10 15 0 8 5 15 10 15 6 0 10 -7
10 -15z m-1137 -36 c152 -2 277 -1 277 4 0 4 164 7 365 7 l365 0 0 -702 c0
-387 3 -713 6 -726 8 -29 36 -22 79 19 17 16 36 29 43 29 7 0 21 8 31 18 11 9
31 25 45 35 l26 18 0 234 c0 232 4 280 21 253 12 -18 12 -2318 0 -2318 -5 0
-12 10 -14 23 -2 12 -5 -20 -6 -70 l-1 -93 -1714 0 -1715 0 -3 100 -3 100
1723 -2 c1386 -2 1721 -1 1717 10 -2 7 -5 374 -5 817 -1 452 -5 807 -10 810
-5 3 -55 -12 -112 -32 l-103 -38 -3 -532 -2 -533 -1485 0 -1484 0 0 1291 0
1291 842 -5 c463 -2 967 -6 1120 -8z m1357 -69 c0 -5 -4 -10 -10 -10 -5 0 -10
5 -10 10 0 6 5 10 10 10 6 0 10 -4 10 -10z m410 -60 c0 -5 -4 -10 -9 -10 -6 0
-13 5 -16 10 -3 6 1 10 9 10 9 0 16 -4 16 -10z m-420 -155 c-14 -8 -29 -14
-35 -14 -5 0 1 6 15 14 14 8 30 14 35 14 6 0 -1 -6 -15 -14z m-50 -20 c0 -16
-25 -53 -33 -48 -5 3 -13 -1 -18 -8 -7 -12 -9 -12 -9 0 0 14 40 61 53 61 4 0
7 -2 7 -5z m2597 -202 c-2 -27 -3 -5 -3 47 0 52 1 74 3 48 2 -27 2 -69 0 -95z
m-2327 -118 c-7 -8 -14 -15 -15 -15 -2 0 -5 7 -9 15 -4 10 1 15 16 15 17 0 18
-2 8 -15z m2051 -2 c13 -16 12 -17 -3 -4 -10 7 -18 15 -18 17 0 8 8 3 21 -13z
m99 2 c0 -11 -11 -15 -40 -15 -38 0 -49 8 -33 23 3 4 21 7 40 7 23 0 33 -5 33
-15z m-2230 -5 c0 -5 -5 -10 -11 -10 -5 0 -7 5 -4 10 3 6 8 10 11 10 2 0 4 -4
4 -10z m2070 0 c0 -5 -5 -10 -11 -10 -5 0 -7 5 -4 10 3 6 8 10 11 10 2 0 4 -4
4 -10z m-957 -7 c-13 -2 -33 -2 -45 0 -13 2 -3 4 22 4 25 0 35 -2 23 -4z
m1227 -219 c23 -23 25 -32 28 -144 l4 -120 -31 -6 c-30 -6 -31 -8 -31 -59 0
-51 1 -54 30 -60 l30 -7 -3 -1381 -3 -1382 -23 -100 c-13 -55 -29 -125 -35
-155 -21 -97 -37 -74 -73 105 l-33 160 1 1555 c0 855 2 1565 6 1578 7 28 58
54 88 45 11 -3 31 -16 45 -29z m-6657 -21 c-7 -2 -21 -2 -30 0 -10 3 -4 5 12
5 17 0 24 -2 18 -5z m380 0 c-40 -2 -107 -2 -150 0 -43 1 -10 3 72 3 83 0 118
-2 78 -3z m-1223 -37 c0 -2 -8 -10 -17 -17 -16 -13 -17 -12 -4 4 13 16 21 21
21 13z m1457 -118 c-3 -8 -6 -5 -6 6 -1 11 2 17 5 13 3 -3 4 -12 1 -19z m0
-575 c-1 -104 -2 -19 -2 187 0 206 1 291 2 188 2 -104 2 -272 0 -375z m3253
296 c0 -5 -4 -9 -10 -9 -5 0 -10 7 -10 16 0 8 5 12 10 9 6 -3 10 -10 10 -16z
m0 -69 c0 -5 -4 -10 -10 -10 -5 0 -10 5 -10 10 0 6 5 10 10 10 6 0 10 -4 10
-10z m2603 -910 c-1 -492 -2 -898 -2 -902 -1 -5 -482 -8 -1071 -8 l-1069 0 -3
133 -3 132 -37 -36 -38 -37 0 329 c0 181 3 328 8 328 4 -1 22 2 40 6 l32 8 0
473 0 474 1072 -2 1072 -3 -1 -895z m-7233 843 c97 -40 138 -75 144 -121 2
-11 17 -19 47 -24 110 -19 165 -30 180 -39 18 -9 42 -84 44 -137 2 -37 3 -39
30 -43 51 -6 100 28 190 134 46 54 107 76 180 66 33 -4 76 -12 94 -18 28 -8
40 -8 57 4 20 13 25 13 37 0 8 -8 17 -12 20 -9 3 3 24 -26 47 -65 22 -39 45
-71 50 -71 6 0 9 -8 8 -17 -5 -64 -6 -63 102 -63 l100 0 0 -599 0 -600 -705 0
-705 0 -1 217 c0 130 -4 209 -9 197 -9 -20 -9 -20 -9 0 -1 12 5 27 12 34 7 9
7 11 1 8 -7 -4 -14 -1 -16 6 -8 20 -10 1110 -3 1140 7 25 11 27 39 21 17 -3
47 -13 66 -21z m1417 -117 c-7 -18 9 -41 29 -41 10 0 19 -5 21 -12 3 -7 -9
-11 -31 -10 -36 1 -36 1 -36 45 0 28 4 41 11 37 6 -4 8 -13 6 -19z m50 -12
c-3 -3 -12 -4 -19 -1 -8 3 -5 6 6 6 11 1 17 -2 13 -5z m-90 -276 c-3 -8 -6 -5
-6 6 -1 11 2 17 5 13 3 -3 4 -12 1 -19z m0 -60 c-3 -8 -6 -5 -6 6 -1 11 2 17
5 13 3 -3 4 -12 1 -19z m0 -440 c-1 -57 -3 -11 -3 102 0 113 2 159 3 103 2
-57 2 -149 0 -205z m3270 80 c-3 -8 -6 -5 -6 6 -1 11 2 17 5 13 3 -3 4 -12 1
-19z m-3270 -220 c-3 -8 -6 -5 -6 6 -1 11 2 17 5 13 3 -3 4 -12 1 -19z m0 -70
c-3 -8 -6 -5 -6 6 -1 11 2 17 5 13 3 -3 4 -12 1 -19z m0 -60 c-3 -7 -5 -2 -5
12 0 14 2 19 5 13 2 -7 2 -19 0 -25z m755 -697 c4 -3 -18 -7 -48 -9 -47 -3
-65 4 -50 19 7 6 90 -2 98 -10z m271 5 c10 3 17 1 17 -5 0 -14 -106 -15 -115
-2 -7 12 68 19 76 8 3 -4 13 -5 22 -1z m87 -7 c0 -5 -11 -9 -25 -9 -17 0 -23
4 -19 14 6 15 44 10 44 -5z m60 -2 c10 -4 8 -6 -7 -6 -12 -1 -24 3 -27 8 -7
11 6 24 13 13 3 -5 13 -12 21 -15z m48 5 c2 -7 -3 -12 -12 -12 -9 0 -16 7 -16
16 0 17 22 14 28 -4z m170 3 c12 2 24 -1 28 -6 4 -7 -14 -9 -50 -7 -31 2 -56
6 -56 10 0 10 34 15 46 6 6 -4 20 -6 32 -3z m272 0 c0 -8 -7 -15 -15 -15 -16
0 -20 12 -8 23 11 12 23 8 23 -8z m190 6 c0 -13 -48 -23 -73 -15 -22 7 -22 8
3 15 36 10 70 10 70 0z m164 -12 c-7 -11 -34 -12 -34 -1 0 14 11 21 26 15 8
-3 11 -9 8 -14z m131 1 c-3 -4 -16 -7 -30 -7 -19 0 -23 2 -15 12 11 13 53 9
45 -5z m122 -7 c-3 -3 -11 -2 -17 2 -9 6 -9 10 1 16 14 8 27 -7 16 -18z m1158
17 c9 8 14 7 18 -3 4 -11 -14 -13 -87 -11 -138 4 -151 7 -46 13 52 3 97 2 98
-2 2 -4 10 -3 17 3z m-2951 -8 c6 -10 -440 -9 -450 1 -4 4 94 7 219 7 124 0
228 -4 231 -8z m80 -2 c-6 -6 -21 -6 -39 -1 -30 9 -30 9 10 10 25 1 36 -2 29
-9z m66 0 c-20 -13 -43 -13 -35 0 3 6 16 10 28 10 18 0 19 -2 7 -10z m257 4
c-10 -11 -58 -13 -51 -3 3 5 17 9 31 9 15 0 23 -3 20 -6z m593 -4 c0 -5 -7
-10 -15 -10 -8 0 -15 5 -15 10 0 6 7 10 15 10 8 0 15 -4 15 -10z m95 0 c3 -5
-3 -10 -14 -10 -12 0 -21 5 -21 10 0 6 6 10 14 10 8 0 18 -4 21 -10z m130 0
c3 -5 -1 -10 -10 -10 -9 0 -13 5 -10 10 3 6 8 10 10 10 2 0 7 -4 10 -10z m50
0 c3 -5 -1 -10 -9 -10 -9 0 -16 5 -16 10 0 6 4 10 9 10 6 0 13 -4 16 -10z
m190 0 c4 -6 -7 -10 -24 -10 -17 0 -31 5 -31 10 0 6 11 10 24 10 14 0 28 -4
31 -10z m135 0 c0 -5 -9 -10 -20 -10 -11 0 -20 5 -20 10 0 6 9 10 20 10 11 0
20 -4 20 -10z m140 0 c0 -5 -4 -10 -10 -10 -5 0 -10 5 -10 10 0 6 5 10 10 10
6 0 10 -4 10 -10z m140 -6 c0 -2 -14 -4 -31 -4 -16 0 -28 4 -25 9 5 8 56 3 56
-5z m80 6 c21 -7 19 -8 -17 -9 -24 -1 -43 4 -43 9 0 12 24 12 60 0z m225 1
c-7 -12 -116 -13 -135 -1 -10 7 11 10 63 10 45 0 76 -4 72 -9z m293 4 c-9 -9
-247 -14 -253 -6 -2 4 56 8 128 9 73 2 129 0 125 -3z m201 1 c-9 -10 -189 -14
-189 -5 0 5 44 9 97 9 53 0 94 -2 92 -4z m56 -6 c-3 -5 -13 -10 -21 -10 -8 0
-14 5 -14 10 0 6 9 10 21 10 11 0 17 -4 14 -10z m-1922 -7 c-7 -2 -19 -2 -25
0 -7 3 -2 5 12 5 14 0 19 -2 13 -5z m224 1 c-3 -3 -12 -4 -19 -1 -8 3 -5 6 6
6 11 1 17 -2 13 -5z m-1847 -624 c0 -5 -4 -10 -10 -10 -5 0 -10 5 -10 10 0 6
5 10 10 10 6 0 10 -4 10 -10z m3911 -59 c15 -6 18 -10 8 -10 -9 -1 -25 7 -36
17 -10 9 -14 14 -8 10 6 -4 22 -12 36 -17z"/>
<path d="M5491 4432 c-56 -28 -75 -63 -79 -145 -2 -55 1 -80 15 -107 56 -109
214 -107 263 3 37 80 15 217 -38 246 -30 16 -32 14 -32 -19 0 -18 10 -39 25
-54 20 -20 25 -35 25 -76 0 -44 -5 -56 -29 -81 -16 -16 -39 -29 -50 -29 -20 0
-21 5 -21 140 0 139 0 140 -22 140 -13 0 -38 -8 -57 -18z m39 -157 c0 -66 -4
-105 -10 -105 -44 0 -87 75 -75 130 6 28 56 80 76 80 5 0 9 -47 9 -105z"/>
<path d="M4108 4423 c7 -3 16 -2 19 1 4 3 -2 6 -13 5 -11 0 -14 -3 -6 -6z"/>
<path d="M3988 4393 c7 -3 16 -2 19 1 4 3 -2 6 -13 5 -11 0 -14 -3 -6 -6z"/>
<path d="M3700 4290 c-8 -5 -10 -10 -5 -10 6 0 17 5 25 10 8 5 11 10 5 10 -5
0 -17 -5 -25 -10z"/>
<path d="M3640 4260 c-8 -5 -10 -10 -5 -10 6 0 17 5 25 10 8 5 11 10 5 10 -5
0 -17 -5 -25 -10z"/>
<path d="M3579 4219 l-24 -20 30 17 c39 24 40 24 28 24 -6 0 -21 -9 -34 -21z"/>
<path d="M3490 4159 l-35 -30 38 26 c33 24 43 35 34 35 -1 0 -18 -14 -37 -31z"/>
<path d="M3361 4048 c-72 -72 -191 -231 -191 -254 0 -4 25 30 56 76 30 47 94
124 142 173 48 48 84 87 81 87 -3 0 -43 -37 -88 -82z"/>
<path d="M5412 4018 c3 -30 8 -34 111 -77 59 -25 106 -49 104 -54 -1 -4 -45
-26 -97 -49 -52 -22 -101 -45 -107 -50 -14 -11 -18 -69 -5 -67 4 0 68 31 142
67 129 64 135 69 138 99 l3 33 -137 65 c-75 36 -141 65 -146 65 -5 0 -8 -14
-6 -32z"/>
<path d="M5313 3653 c-7 -2 -13 -18 -13 -34 0 -24 4 -29 26 -29 22 0 25 4 22
32 -3 32 -13 40 -35 31z"/>
<path d="M5547 3652 l-138 -3 3 -27 3 -27 143 -3 142 -3 0 30 c0 16 -3 31 -7
33 -5 2 -70 2 -146 0z"/>
<path d="M5670 3508 c0 -41 -17 -48 -122 -48 l-98 0 0 30 c0 23 -4 30 -20 30
-16 0 -20 -7 -20 -30 0 -28 -3 -30 -35 -30 -32 0 -35 -2 -35 -30 0 -28 3 -30
34 -30 28 0 35 -4 38 -22 4 -31 36 -36 40 -6 3 22 7 23 118 28 110 5 115 6
127 30 19 35 13 94 -9 98 -13 3 -18 -3 -18 -20z"/>
<path d="M4480 3300 c0 -5 5 -10 11 -10 5 0 7 5 4 10 -3 6 -8 10 -11 10 -2 0
-4 -4 -4 -10z"/>
<path d="M4375 3280 c-6 -10 -5 -12 17 -14 7 0 14 -9 16 -19 4 -19 -4 -19 -56
0 -8 3 -10 0 -6 -10 3 -9 12 -18 20 -21 18 -7 18 -26 0 -26 -8 0 -18 -5 -22
-11 -5 -9 1 -10 22 -5 16 4 40 8 54 9 27 2 42 37 16 37 -10 0 -16 9 -16 21 0
19 2 20 16 8 14 -12 16 -11 12 6 -2 12 -10 19 -21 17 -9 -2 -17 2 -17 8 0 13
-27 13 -35 0z"/>
<path d="M5574 3282 c-104 -2 -113 -4 -135 -28 -19 -20 -24 -38 -27 -94 -6
-92 3 -132 35 -164 34 -34 43 -33 43 5 0 19 -8 37 -21 48 -15 12 -23 32 -26
67 -5 65 13 99 52 99 l30 0 6 -85 c6 -95 26 -145 65 -162 82 -38 146 97 99
210 -10 24 -12 38 -5 40 11 4 14 59 3 64 -5 2 -58 2 -119 0z m71 -82 c22 -25
32 -118 16 -149 -16 -29 -56 -27 -77 4 -10 15 -19 55 -22 95 l-5 70 35 0 c22
0 42 -7 53 -20z"/>
<path d="M4513 3243 c-7 -2 -13 -11 -13 -19 0 -8 -5 -14 -11 -14 -5 0 -7 -4
-4 -10 3 -5 14 -10 24 -10 13 0 18 8 18 30 0 17 -1 30 -1 29 -1 0 -7 -3 -13
-6z"/>
<path d="M4560 3184 c0 -14 3 -14 15 -4 8 7 15 14 15 16 0 2 -7 4 -15 4 -8 0
-15 -7 -15 -16z"/>
<path d="M4390 3139 c0 -5 5 -7 10 -4 6 3 10 8 10 11 0 2 -4 4 -10 4 -5 0 -10
-5 -10 -11z"/>
<path d="M4536 3124 c-8 -21 -8 -21 8 -21 8 0 11 8 8 19 -5 22 -8 23 -16 2z"/>
<path d="M5477 2882 c-92 -57 -88 -259 6 -309 71 -37 151 -17 201 50 21 29 32
114 22 171 -8 39 -50 96 -72 96 -23 0 -17 -55 7 -71 27 -18 37 -95 19 -139
-12 -28 -54 -60 -80 -60 -6 0 -10 49 -10 140 l0 140 -32 0 c-18 0 -46 -8 -61
-18z m53 -157 c0 -58 -4 -105 -9 -105 -23 0 -69 52 -75 84 -11 58 27 125 72
126 9 0 12 -28 12 -105z"/>
<path d="M3061 2814 c0 -11 3 -14 6 -6 3 7 2 16 -1 19 -3 4 -6 -2 -5 -13z"/>
<path d="M3120 2635 c0 -5 5 -17 10 -25 5 -8 10 -10 10 -5 0 6 -5 17 -10 25
-5 8 -10 11 -10 5z"/>
<path d="M5410 2492 c0 -24 8 -49 20 -65 20 -25 20 -25 -1 -30 -16 -4 -20 -12
-17 -34 l3 -28 143 -3 142 -3 0 36 0 35 -105 0 c-101 0 -105 1 -121 26 -10 14
-18 42 -19 62 -2 29 -7 38 -24 40 -18 3 -21 -2 -21 -36z"/>
<path d="M3205 2470 c38 -68 205 -244 259 -272 26 -13 27 -14 -59 59 -38 33
-97 93 -129 134 -69 85 -83 101 -71 79z"/>
<path d="M5461 2254 c-33 -23 -51 -74 -51 -141 0 -106 54 -165 151 -165 106 0
164 87 145 216 -7 44 -50 106 -75 106 -22 0 -12 -61 14 -82 20 -16 25 -28 25
-64 0 -56 -12 -79 -50 -99 -66 -34 -148 -5 -170 60 -14 42 -1 90 30 112 12 9
20 25 20 44 0 33 -6 35 -39 13z"/>
<path d="M3502 2174 c10 -10 20 -16 22 -13 3 3 -5 11 -17 18 -21 13 -21 12 -5
-5z"/>
<path d="M3700 2070 c8 -5 20 -10 25 -10 6 0 3 5 -5 10 -8 5 -19 10 -25 10 -5
0 -3 -5 5 -10z"/>
<path d="M3928 1993 c7 -3 16 -2 19 1 4 3 -2 6 -13 5 -11 0 -14 -3 -6 -6z"/>
<path d="M3933 1335 c6 -16 902 -19 915 -3 8 11 -82 13 -454 13 -305 0 -463
-3 -461 -10z"/>
<path d="M8701 3295 c0 -30 5 -57 10 -60 5 -4 9 20 9 54 0 34 -4 61 -9 61 -5
0 -10 -25 -10 -55z"/>
<path d="M8284 3059 c-45 -13 -66 -42 -72 -100 -8 -87 33 -139 112 -139 67 0
115 75 100 155 -6 36 -38 85 -55 85 -16 0 -10 -31 11 -57 39 -50 14 -133 -40
-133 -20 0 -21 5 -19 95 1 53 0 97 -2 99 -2 2 -18 -1 -35 -5z m16 -120 c0 -60
-2 -70 -16 -67 -29 5 -57 53 -50 82 8 32 43 69 56 61 6 -4 10 -38 10 -76z"/>
<path d="M8210 2766 c0 -20 12 -29 80 -57 44 -18 80 -35 80 -39 0 -3 -36 -21
-80 -39 -61 -25 -80 -37 -80 -52 0 -10 5 -19 10 -19 6 0 53 20 105 44 137 64
133 75 -59 160 l-56 25 0 -23z"/>
<path d="M8134 2496 c-7 -19 3 -36 22 -36 10 0 14 8 12 22 -4 26 -26 36 -34
14z"/>
<path d="M8217 2504 c-4 -4 -7 -16 -7 -26 0 -16 10 -18 106 -18 104 0 105 0
102 23 -3 21 -8 22 -98 25 -53 1 -99 0 -103 -4z"/>
<path d="M8398 2398 c-3 -21 -8 -23 -80 -26 -73 -3 -78 -1 -78 18 0 11 -7 20
-15 20 -8 0 -15 -9 -15 -20 0 -15 -7 -20 -26 -20 -21 0 -25 -4 -22 -22 2 -14
10 -23 20 -23 9 0 23 -9 31 -19 14 -19 15 -19 26 2 11 20 20 22 92 22 85 0 88
2 92 55 2 34 -20 46 -25 13z"/>
<path d="M7460 2240 c0 -5 9 -10 21 -10 11 0 17 5 14 10 -3 6 -13 10 -21 10
-8 0 -14 -4 -14 -10z"/>
<path d="M8253 2240 c-31 -13 -43 -41 -43 -100 0 -56 22 -110 45 -110 21 0 18
26 -7 60 -18 25 -20 35 -12 67 7 28 15 39 31 41 24 4 28 -7 36 -91 7 -79 60
-113 103 -66 19 21 20 36 12 154 l-3 50 -70 2 c-38 1 -80 -2 -92 -7z m131 -62
c20 -29 20 -82 1 -102 -33 -32 -65 10 -65 85 0 35 3 39 24 39 14 0 32 -10 40
-22z"/>
<path d="M7551 2208 c-1 -16 4 -28 9 -28 12 0 12 8 0 35 -8 18 -9 17 -9 -7z"/>
<path d="M7445 2204 c17 -13 18 -16 5 -25 -11 -7 -4 -9 24 -7 40 3 65 28 27
28 -11 0 -23 5 -26 10 -3 6 -16 10 -28 10 -22 -1 -22 -1 -2 -16z"/>
<path d="M7590 2169 c0 -5 5 -7 10 -4 6 3 10 8 10 11 0 2 -4 4 -10 4 -5 0 -10
-5 -10 -11z"/>
<path d="M7575 2120 c-3 -5 -1 -10 4 -10 6 0 11 5 11 10 0 6 -2 10 -4 10 -3 0
-8 -4 -11 -10z"/>
<path d="M8283 1973 c-12 -2 -34 -18 -48 -34 -20 -25 -25 -41 -25 -86 0 -49 4
-59 34 -89 38 -38 77 -44 124 -20 37 19 57 60 57 117 0 47 -25 97 -53 107 -19
6 -14 -27 8 -55 28 -36 26 -84 -4 -113 -44 -41 -56 -23 -56 85 0 52 -3 94 -7
94 -5 -1 -18 -4 -30 -6z m17 -118 c0 -81 -10 -93 -45 -55 -27 30 -25 88 4 111
13 11 27 19 32 19 5 0 9 -34 9 -75z"/>
<path d="M8210 1689 c0 -11 5 -30 11 -42 9 -16 9 -22 0 -25 -6 -2 -11 -12 -11
-23 0 -18 8 -19 105 -19 98 0 105 1 105 20 0 18 -7 20 -74 20 -66 0 -77 3 -90
22 -9 12 -16 33 -16 45 0 14 -6 23 -15 23 -8 0 -15 -9 -15 -21z"/>
<path d="M8231 1504 c-32 -40 -29 -123 5 -163 33 -40 81 -49 131 -25 45 22 68
76 58 135 -9 55 -65 107 -65 61 0 -11 9 -27 20 -37 28 -25 26 -76 -3 -103 -29
-28 -86 -29 -118 -3 -29 23 -32 87 -6 106 18 13 24 55 8 55 -5 0 -19 -12 -30
-26z"/>
<path d="M2358 2623 c7 -3 16 -2 19 1 4 3 -2 6 -13 5 -11 0 -14 -3 -6 -6z"/>
<path d="M2470 2590 c-13 -13 -20 -33 -20 -60 0 -49 27 -80 70 -80 17 0 39 9
50 20 27 27 27 90 0 121 l-19 24 -1 -22 c0 -13 5 -23 10 -23 14 0 12 -64 -2
-78 -28 -28 -38 -13 -38 53 0 72 -12 83 -50 45z m40 -60 c0 -54 -4 -59 -32
-33 -22 20 -23 32 -2 61 24 34 34 26 34 -28z"/>
<path d="M2450 2413 c0 -8 21 -24 50 -36 28 -11 50 -24 50 -27 0 -3 -22 -14
-50 -25 -34 -13 -50 -25 -50 -37 0 -16 9 -14 70 17 39 19 70 41 70 48 0 6 -32
26 -70 44 -55 25 -70 28 -70 16z"/>
<path d="M2400 2225 c0 -8 5 -15 10 -15 6 0 10 7 10 15 0 8 -4 15 -10 15 -5 0
-10 -7 -10 -15z"/>
<path d="M2450 2225 c0 -13 12 -15 67 -13 42 2 68 8 71 16 3 9 -15 12 -67 12
-57 0 -71 -3 -71 -15z"/>
<path d="M2450 2165 c0 -8 -6 -15 -14 -15 -23 0 -29 -19 -9 -27 10 -4 22 -11
26 -17 6 -8 10 -7 14 2 3 7 23 12 52 12 50 0 71 13 71 42 0 22 -16 24 -24 3
-4 -10 -20 -15 -51 -15 -33 0 -45 4 -45 15 0 8 -4 15 -10 15 -5 0 -10 -7 -10
-15z"/>
<path d="M1957 2069 c7 -7 15 -10 18 -7 3 3 -2 9 -12 12 -14 6 -15 5 -6 -5z"/>
<path d="M2462 2058 c-18 -18 -15 -103 3 -118 23 -19 29 -5 10 24 -11 16 -15
35 -11 51 10 40 33 30 41 -17 10 -57 22 -78 45 -78 28 0 40 29 38 94 l-2 56
-56 0 c-31 0 -61 -5 -68 -12z m106 -57 c4 -44 -14 -63 -34 -37 -8 11 -14 33
-14 49 0 24 4 28 23 25 17 -2 23 -11 25 -37z"/>
<path d="M1955 2030 c-3 -5 3 -10 14 -10 12 0 21 5 21 10 0 6 -6 10 -14 10 -8
0 -18 -4 -21 -10z"/>
<path d="M2466 1868 c-24 -34 -20 -90 7 -116 30 -29 62 -28 92 3 32 31 34 93
5 120 -23 21 -26 9 -6 -29 16 -32 11 -63 -14 -76 -25 -13 -30 -4 -30 62 0 51
-2 58 -19 58 -11 0 -27 -10 -35 -22z m44 -52 c0 -53 -13 -66 -35 -33 -16 24
-12 55 9 69 21 15 26 8 26 -36z"/>
<path d="M2452 1675 l1 -45 69 0 c54 0 68 3 68 15 0 12 -13 15 -55 15 -54 0
-56 1 -61 30 -10 45 -22 36 -22 -15z"/>
<path d="M2467 1586 c-24 -25 -22 -91 3 -116 47 -47 120 -11 120 58 0 26 -7
45 -20 57 -17 16 -20 16 -20 2 0 -9 5 -19 10 -22 14 -9 13 -58 -2 -73 -21 -21
-66 -14 -84 13 -15 23 -15 27 0 51 22 32 16 53 -7 30z"/>
<path d="M1775 4220 c0 -338 1 -477 2 -307 2 169 2 445 0 615 -1 169 -2 30 -2
-308z"/>
</g>
</svg>
